<svg width="174" height="127" viewBox="0 0 174 127" fill="none"
  xmlns="http://www.w3.org/2000/svg">
  <path d="M27.1442 24.355C28.702 21.7238 32.0155 20.7248 34.5451 22.1236L92.2563 54.0367C94.7859 55.4355 95.5738 58.7025 94.016 61.3336L71.1691 99.9236C69.6113 102.555 66.2978 103.554 63.7682 102.155L6.05698 70.2419C3.52737 68.8431 2.73955 65.5761 4.29733 62.9449L27.1442 24.355Z" fill="var(--primaryColor)"/>
  <path d="M25.1035 26.5117L100.56 68.6147L95.1807 77.6191L19.7243 35.5161L25.1035 26.5117Z" fill="white"/>
  <path fill-rule="evenodd" clip-rule="evenodd" d="M99.5941 58.5782L34.4632 22.2365C32.4621 21.12 29.9033 21.7826 28.748 23.7165L4.54169 64.2362C3.38637 66.1702 4.07199 68.6431 6.07308 69.7597L71.204 106.101C73.2051 107.218 75.7639 106.555 76.9192 104.621L101.126 64.1016C102.281 62.1676 101.595 59.6947 99.5941 58.5782ZM35.3597 20.7358C32.501 19.1407 28.8456 20.0873 27.1952 22.8501L2.98886 63.3698C1.33839 66.1326 2.31786 69.6653 5.17655 71.2604L70.3075 107.602C73.1662 109.197 76.8216 108.25 78.4721 105.488L102.678 64.968C104.329 62.2053 103.349 58.6725 100.491 57.0774L35.3597 20.7358Z" fill="var(--primaryVariationColor40)"/>
  <path fill-rule="evenodd" clip-rule="evenodd" d="M98.1106 69.25L25.7598 28.8799L22.1737 34.8828L94.5244 75.2529L98.1106 69.25ZM25.1035 26.5127L19.7243 35.5171L95.1807 77.62L100.56 68.6157L25.1035 26.5127Z" fill="var(--primaryVariationColor40)"/>
  <path fill-rule="evenodd" clip-rule="evenodd" d="M99.4355 58.6892L34.3558 22.3762C32.3547 21.2596 29.7959 21.9222 28.6406 23.8562L26.7527 27.0163L99.079 67.3728L100.967 64.2126C102.122 62.2787 101.437 59.8058 99.4355 58.6892ZM35.2523 20.8755C32.3936 19.2804 28.7382 20.227 27.0877 22.9897L24.3033 27.6506L99.7353 69.74L102.52 65.0791C104.17 62.3163 103.191 58.7836 100.332 57.1885L35.2523 20.8755Z" fill="var(--primaryVariationColor40)"/>
  <path d="M8.69531 66.7545C8.69531 63.5877 11.3991 61.0205 14.7343 61.0205H90.8255C94.1608 61.0205 96.8645 63.5877 96.8645 66.7545V113.2C96.8645 116.367 94.1608 118.934 90.8255 118.934H14.7343C11.3991 118.934 8.69531 116.367 8.69531 113.2V66.7545Z" fill="var(--primaryColor40Solid)"/>
  <path d="M8.36719 70.4121H95.6294V80.8095H8.36719V70.4121Z" fill="white"/>
  <path d="M14.3438 110.847C14.3438 111.485 14.8789 112.002 15.5391 112.002H34.0674C34.7276 112.002 35.2628 111.485 35.2628 110.847V103.337C35.2628 102.699 34.7276 102.182 34.0674 102.182H15.5391C14.8789 102.182 14.3438 102.699 14.3438 103.337V110.847Z" fill="white"/>
  <path fill-rule="evenodd" clip-rule="evenodd" d="M91.2844 62.3266H14.464C12.107 62.3266 10.1962 64.1369 10.1962 66.3701V113.158C10.1962 115.391 12.107 117.202 14.464 117.202H91.2844C93.6414 117.202 95.5522 115.391 95.5522 113.158V66.3701C95.5522 64.1369 93.6414 62.3266 91.2844 62.3266ZM14.464 60.5938C11.0968 60.5938 8.36719 63.1799 8.36719 66.3701V113.158C8.36719 116.348 11.0968 118.935 14.464 118.935H91.2844C94.6516 118.935 97.3812 116.348 97.3812 113.158V66.3701C97.3812 63.1799 94.6516 60.5938 91.2844 60.5938H14.464Z" fill="var(--primaryColor)"/>
  <path fill-rule="evenodd" clip-rule="evenodd" d="M95.5522 72.146H10.1962V79.0776H95.5522V72.146ZM8.36719 70.4131V80.8105H97.3812V70.4131H8.36719Z" fill="var(--primaryColor)"/>
  <path fill-rule="evenodd" clip-rule="evenodd" d="M16.2807 110.271V104.069H34.2113V110.271H16.2807ZM15.6624 111.963C14.9794 111.963 14.4258 111.458 14.4258 110.835V103.505C14.4258 102.882 14.9794 102.377 15.6624 102.377H34.8296C35.5125 102.377 36.0662 102.882 36.0662 103.505V110.835C36.0662 111.458 35.5125 111.963 34.8296 111.963H15.6624Z" fill="var(--primaryColor)"/>
  <path fill-rule="evenodd" clip-rule="evenodd" d="M55.9043 103.248C55.9043 102.767 56.3585 102.377 56.9187 102.377H73.8252C74.3855 102.377 74.8396 102.767 74.8396 103.248C74.8396 103.73 74.3855 104.12 73.8252 104.12H56.9187C56.3585 104.12 55.9043 103.73 55.9043 103.248Z" fill="var(--primaryColor)"/>
  <path fill-rule="evenodd" clip-rule="evenodd" d="M49.5918 108.731C49.5918 108.252 50.0012 107.864 50.5063 107.864L84.039 107.864C84.5441 107.864 84.9535 108.252 84.9535 108.731C84.9535 109.209 84.5441 109.597 84.039 109.597L50.5063 109.597C50.0012 109.597 49.5918 109.209 49.5918 108.731Z" fill="var(--primaryColor)"/>
  <path d="M135.042 90.6806L171.755 18.0789L135.413 1L98.6992 73.6014L135.042 90.6806Z" fill="var(--primaryColor40Solid)"/>
  <path d="M135.042 90.6806L171.755 18.0789L135.413 1L98.6992 73.6014L135.042 90.6806Z" stroke="var(--primaryVariationColor40)" stroke-width="2" stroke-miterlimit="10" stroke-linecap="round" stroke-linejoin="round"/>
  <path d="M157.373 16.27L145.742 10.7979C143.544 15.1702 138.09 16.9674 133.555 14.8483L104.895 71.5007L132.915 84.6713L161.575 28.0189C157.039 25.8998 155.147 20.6423 157.373 16.27Z" fill="white"/>
  <path d="M157.373 16.27L145.742 10.7979C143.544 15.1702 138.09 16.9674 133.555 14.8483L104.895 71.5007L132.915 84.6713L161.575 28.0189C157.039 25.8998 155.147 20.6423 157.373 16.27Z" stroke="var(--primaryVariationColor40)" stroke-width="2" stroke-miterlimit="10" stroke-linecap="round" stroke-linejoin="round"/>
  <path d="M165.565 20.123L137.551 6.95801L104.898 71.5305L132.912 84.6952L165.565 20.123Z" stroke="var(--primaryVariationColor40)" stroke-width="2" stroke-miterlimit="10" stroke-linecap="round" stroke-linejoin="round"/>
  <path d="M138.007 49.372C143.278 49.372 147.551 45.2529 147.551 40.1713C147.551 35.0901 143.278 30.9707 138.007 30.9707C132.736 30.9707 128.463 35.0901 128.463 40.1713C128.463 45.2529 132.736 49.372 138.007 49.372Z" fill="var(--primaryColor40Solid)"/>
  <path d="M138.007 49.372C143.278 49.372 147.551 45.2529 147.551 40.1713C147.551 35.0901 143.278 30.9707 138.007 30.9707C132.736 30.9707 128.463 35.0901 128.463 40.1713C128.463 45.2529 132.736 49.372 138.007 49.372Z" stroke="var(--primaryVariationColor40)" stroke-width="2" stroke-miterlimit="10" stroke-linecap="round" stroke-linejoin="round"/>
  <path d="M140.427 117.88H81.994C72.7838 117.88 65.2988 110.665 65.2988 101.786V38.4812C65.2988 29.6024 72.7838 22.3867 81.994 22.3867H140.427C149.637 22.3867 157.123 29.6024 157.123 38.4812V101.786C157.123 110.692 149.665 117.88 140.427 117.88Z" fill="var(--primaryColor)"/>
  <path d="M140.427 117.88H81.994C72.7838 117.88 65.2988 110.665 65.2988 101.786V38.4812C65.2988 29.6024 72.7838 22.3867 81.994 22.3867H140.427C149.637 22.3867 157.123 29.6024 157.123 38.4812V101.786C157.123 110.692 149.665 117.88 140.427 117.88Z" fill="var(--primaryColor)"/>
  <path opacity="0.46" d="M71.4199 101.385V38.8845C71.4199 33.2515 76.1502 28.6914 81.9936 28.6914H140.427C146.27 28.6914 151 33.2515 151 38.8845V101.358C151 106.991 146.27 111.551 140.427 111.551H81.9936C76.1502 111.578 71.4199 107.018 71.4199 101.385Z" stroke="var(--primaryVariationColor40)" stroke-width="2" stroke-linecap="round" stroke-linejoin="round" stroke-dasharray="13.96 13.96"/>
  <path d="M140.427 117.88H81.994C72.7838 117.88 65.2988 110.665 65.2988 101.786V38.4812C65.2988 29.6024 72.7838 22.3867 81.994 22.3867H140.427C149.637 22.3867 157.123 29.6024 157.123 38.4812V101.786C157.123 110.692 149.665 117.88 140.427 117.88Z" stroke="var(--primaryVariationColor40)" stroke-width="2" stroke-miterlimit="10" stroke-linecap="round" stroke-linejoin="round"/>
  <path d="M118.724 58.7336H103.698C100.943 58.7336 98.6895 56.5608 98.6895 53.9052V21.1799C98.6895 18.5243 100.943 16.3516 103.698 16.3516H118.724C121.478 16.3516 123.732 18.5243 123.732 21.1799V53.9052C123.732 56.5608 121.506 58.7336 118.724 58.7336Z" fill="var(--primaryColor40Solid)"/>
  <path d="M118.724 58.7336H103.698C100.943 58.7336 98.6895 56.5608 98.6895 53.9052V21.1799C98.6895 18.5243 100.943 16.3516 103.698 16.3516H118.724C121.478 16.3516 123.732 18.5243 123.732 21.1799V53.9052C123.732 56.5608 121.506 58.7336 118.724 58.7336Z" stroke="var(--primaryVariationColor40)" stroke-width="2" stroke-miterlimit="10" stroke-linecap="round" stroke-linejoin="round"/>
  <path d="M111.211 50.2042C114.777 50.2042 117.667 47.418 117.667 43.981C117.667 40.544 114.777 37.7578 111.211 37.7578C107.646 37.7578 104.756 40.544 104.756 43.981C104.756 47.418 107.646 50.2042 111.211 50.2042Z" fill="#E3E2F8"/>
  <path d="M111.211 50.2042C114.777 50.2042 117.667 47.418 117.667 43.981C117.667 40.544 114.777 37.7578 111.211 37.7578C107.646 37.7578 104.756 40.544 104.756 43.981C104.756 47.418 107.646 50.2042 111.211 50.2042Z" stroke="var(--primaryVariationColor40)" stroke-width="2" stroke-miterlimit="10" stroke-linecap="round" stroke-linejoin="round"/>
  <path opacity="0.6" d="M114.341 40.42C114.595 41.4136 113.165 42.0411 111.068 42.4072C108.938 42.7471 107.032 42.7994 106.777 41.9627C106.523 41.1521 107.953 39.6094 110.051 39.1126C112.18 38.6158 114.087 39.4525 114.341 40.42Z" fill="white"/>
  <circle cx="157.083" cy="109.75" r="15.4167" fill="#34C59F" stroke="#CBEFE2" stroke-width="3"/>
  <path d="M150.799 110.233L155.351 114.583L163.849 105.399" stroke="white" stroke-width="3" stroke-linecap="round" stroke-linejoin="round"/>
</svg>
