<svg width="209" height="120" viewBox="0 0 209 120" fill="none" xmlns="http://www.w3.org/2000/svg">
<g id="Group 254">
<g id="Cards">
<path id="Fill (primarySolid20)" d="M27.2936 24.5656C28.8599 21.9106 32.1915 20.9025 34.735 22.314L92.7624 54.5157C95.3059 55.9271 96.098 59.2236 94.5317 61.8786L71.5596 100.818C69.9933 103.472 66.6617 104.481 64.1182 103.069L6.09079 70.8674C3.54733 69.456 2.75519 66.1594 4.3215 63.5045L27.2936 24.5656Z" fill="var(--primaryColor)"/>
<path id="Line (white)" d="M25.2405 26.7424L101.11 69.2261L95.7016 78.312L19.8318 35.8282L25.2405 26.7424Z" fill="white"/>
<g id="Lines2 (primarySolid40)">
<path id="Rectangle 164 (Stroke)" fill-rule="evenodd" clip-rule="evenodd" d="M100.139 59.0986L34.6515 22.4283C32.6395 21.3017 30.0667 21.9703 28.905 23.9217L4.56613 64.8079C3.40448 66.7593 4.09386 69.2546 6.10591 70.3812L71.5937 107.051C73.6058 108.178 76.1785 107.51 77.3402 105.558L101.679 64.672C102.841 62.7205 102.151 60.2253 100.139 59.0986ZM35.553 20.914C32.6786 19.3045 29.0032 20.2597 27.3437 23.0474L3.00479 63.9336C1.34528 66.7213 2.33011 70.286 5.20446 71.8955L70.6923 108.566C73.5666 110.175 77.242 109.22 78.9015 106.432L103.24 65.5462C104.9 62.7585 103.915 59.1938 101.041 57.5843L35.553 20.914Z" fill="var(--primaryVariationColor)"/>
<path id="Rectangle 165 (Stroke)" fill-rule="evenodd" clip-rule="evenodd" d="M98.6475 69.8667L25.9004 29.1315L22.2946 35.1887L95.0417 75.9239L98.6475 69.8667ZM25.2405 26.7429L19.8318 35.8287L95.7016 78.3124L101.11 69.2266L25.2405 26.7429Z" fill="var(--primaryVariationColor)"/>
<path id="Rectangle 166 (Stroke)" fill-rule="evenodd" clip-rule="evenodd" d="M99.98 59.2106L34.5438 22.5692C32.5317 21.4425 29.9589 22.1112 28.7973 24.0626L26.8991 27.2513L99.6216 67.9727L101.52 64.784C102.681 62.8325 101.992 60.3373 99.98 59.2106ZM35.4452 21.0549C32.5708 19.4454 28.8954 20.4005 27.2359 23.1883L24.4363 27.8913L100.281 70.3613L103.081 65.6582C104.741 62.8705 103.756 59.3058 100.881 57.6963L35.4452 21.0549Z" fill="var(--primaryVariationColor)"/>
</g>
<path id="Fill (primarySolid20)_2" d="M8.74341 67.3481C8.74341 64.1527 11.462 61.5623 14.8155 61.5623H91.3236C94.6771 61.5623 97.3957 64.1527 97.3957 67.3481V114.214C97.3957 117.409 94.6771 120 91.3236 120H14.8155C11.462 120 8.74341 117.409 8.74341 114.214V67.3481Z" fill="var(--primaryColor40Solid)"/>
<g id="Fill2 (white)">
<path id="Rectangle 162" d="M8.41351 71.0396H96.1538V81.5309H8.41351V71.0396Z" fill="white"/>
<path id="Rectangle 163" d="M14.4229 111.839C14.4229 112.483 14.961 113.005 15.6248 113.005H34.2546C34.9184 113.005 35.4565 112.483 35.4565 111.839V104.262C35.4565 103.618 34.9184 103.097 34.2546 103.097H15.6248C14.961 103.097 14.4229 103.618 14.4229 104.262V111.839Z" fill="white"/>
</g>
<g id="Lines (primarySolid40)">
<path id="Rectangle 161 (Stroke)" fill-rule="evenodd" clip-rule="evenodd" d="M91.785 62.8802H14.5438C12.1739 62.8802 10.2527 64.7068 10.2527 66.9601V114.171C10.2527 116.425 12.1739 118.251 14.5438 118.251H91.785C94.155 118.251 96.0762 116.425 96.0762 114.171V66.9601C96.0762 64.7068 94.155 62.8802 91.785 62.8802ZM14.5438 61.1316C11.1582 61.1316 8.41357 63.7411 8.41357 66.9601V114.171C8.41357 117.39 11.1582 120 14.5438 120H91.785C95.1706 120 97.9153 117.39 97.9153 114.171V66.9601C97.9153 63.7411 95.1707 61.1316 91.785 61.1316H14.5438Z" fill="var(--primaryColor)"/>
<path id="Rectangle 162 (Stroke)" fill-rule="evenodd" clip-rule="evenodd" d="M96.0761 72.7881H10.2526V79.7824H96.0761V72.7881ZM8.41351 71.0396V81.5309H97.9152V71.0396H8.41351Z" fill="var(--primaryColor)"/>
<path id="Rectangle 163 (Stroke)" fill-rule="evenodd" clip-rule="evenodd" d="M16.371 111.258V105H34.3999V111.258H16.371ZM15.7493 112.965C15.0627 112.965 14.506 112.456 14.506 111.827V104.431C14.506 103.802 15.0627 103.293 15.7493 103.293H35.0215C35.7082 103.293 36.2649 103.802 36.2649 104.431V111.827C36.2649 112.456 35.7082 112.965 35.0215 112.965H15.7493Z" fill="var(--primaryColor)"/>
<path id="Line 15 (Stroke)" fill-rule="evenodd" clip-rule="evenodd" d="M56.2106 104.172C56.2106 103.686 56.6672 103.293 57.2305 103.293H74.2297C74.793 103.293 75.2496 103.686 75.2496 104.172C75.2496 104.658 74.793 105.051 74.2297 105.051H57.2305C56.6672 105.051 56.2106 104.658 56.2106 104.172Z" fill="var(--primaryColor)"/>
<path id="Line 16 (Stroke)" fill-rule="evenodd" clip-rule="evenodd" d="M49.864 109.704C49.864 109.222 50.2757 108.83 50.7836 108.83L84.4999 108.83C85.0078 108.83 85.4195 109.222 85.4195 109.704C85.4195 110.187 85.0078 110.579 84.4999 110.579L50.7836 110.579C50.2757 110.579 49.864 110.187 49.864 109.704Z" fill="var(--primaryColor)"/>
</g>
</g>
<g id="Wallet">
<g id="Money">
<path id="Money2(primary40Solid)" d="M135.781 91.4916L172.696 18.2333L136.154 1L99.2394 74.258L135.781 91.4916Z" fill="var(--primaryColor40Solid)"/>
<path id="Money(White)" d="M158.234 16.4083L146.54 10.8867C144.329 15.2986 138.846 17.112 134.285 14.9738L105.468 72.1385L133.642 85.4282L162.459 28.2635C157.899 26.1252 155.996 20.8202 158.234 16.4083Z" fill="white"/>
<g id="Outlines (primaryVariantColor)">
<path id="SHAPE7" d="M135.781 91.4916L172.696 18.2333L136.154 1L99.2394 74.258L135.781 91.4916Z" stroke="var(--primaryVariationColor)" stroke-width="2" stroke-miterlimit="10" stroke-linecap="round" stroke-linejoin="round"/>
<path id="SHAPE2" d="M158.234 16.4083L146.54 10.8867C144.329 15.2986 138.846 17.112 134.285 14.9738L105.468 72.1385L133.642 85.4282L162.459 28.2635C157.899 26.1252 155.996 20.8202 158.234 16.4083Z" stroke="var(--primaryVariationColor)" stroke-width="2" stroke-miterlimit="10" stroke-linecap="round" stroke-linejoin="round"/>
<path id="SHAPE0" d="M166.471 20.2957L138.304 7.01172L105.472 72.1681L133.64 85.4519L166.471 20.2957Z" stroke="var(--primaryVariationColor)" stroke-width="2" stroke-miterlimit="10" stroke-linecap="round" stroke-linejoin="round"/>
</g>
</g>
<g id="Wallet2">
<path id="Body (primaryColor)" d="M141.196 118.938H82.4429C73.1822 118.938 65.6562 111.657 65.6562 102.698V38.8205C65.6562 29.8615 73.1822 22.5806 82.4429 22.5806H141.196C150.457 22.5806 157.983 29.8615 157.983 38.8205V102.698C157.983 111.684 150.485 118.938 141.196 118.938Z" fill="var(--primaryColor)"/>
<g id="Outline (primaryVariantColor)">
<path id="Vector2" opacity="0.46" d="M71.8113 102.292V39.2272C71.8113 33.5432 76.5675 28.9419 82.4428 28.9419H141.196C147.072 28.9419 151.828 33.5432 151.828 39.2272V102.265C151.828 107.949 147.072 112.551 141.196 112.551H82.4428C76.5675 112.578 71.8113 107.976 71.8113 102.292Z" stroke="var(--primaryVariationColor)" stroke-width="2" stroke-linecap="round" stroke-linejoin="round" stroke-dasharray="13.96 13.96"/>
<path id="Vector" d="M141.196 118.938H82.4429C73.1822 118.938 65.6562 111.657 65.6562 102.698V38.8205C65.6562 29.8615 73.1822 22.5806 82.4429 22.5806H141.196C150.457 22.5806 157.983 29.8615 157.983 38.8205V102.698C157.983 111.684 150.485 118.938 141.196 118.938Z" stroke="var(--primaryVariationColor)" stroke-width="2" stroke-miterlimit="10" stroke-linecap="round" stroke-linejoin="round"/>
</g>
<path id="Rectangle (primary40Solid)" d="M119.374 59.2555H104.266C101.496 59.2555 99.2297 57.0631 99.2297 54.3835V21.3622C99.2297 18.6826 101.496 16.4902 104.266 16.4902H119.374C122.144 16.4902 124.41 18.6826 124.41 21.3622V54.3835C124.41 57.0631 122.172 59.2555 119.374 59.2555Z" fill="var(--primaryColor40Solid)"/>
<path id="Outline2 (primaryVariantColor)" d="M119.374 59.2555H104.266C101.496 59.2555 99.2297 57.0631 99.2297 54.3835V21.3622C99.2297 18.6826 101.496 16.4902 104.266 16.4902H119.374C122.144 16.4902 124.41 18.6826 124.41 21.3622V54.3835C124.41 57.0631 122.172 59.2555 119.374 59.2555Z" stroke="var(--primaryVariationColor)" stroke-width="2" stroke-miterlimit="10" stroke-linecap="round" stroke-linejoin="round"/>
<path id="Circle (primary20Solid)" d="M111.819 50.6485C115.404 50.6485 118.31 47.8371 118.31 44.3691C118.31 40.901 115.404 38.0896 111.819 38.0896C108.234 38.0896 105.328 40.901 105.328 44.3691C105.328 47.8371 108.234 50.6485 111.819 50.6485Z" fill="var(--primaryColor20Solid)"/>
<path id="Outline3 (primaryVariantColor)" d="M111.819 50.6485C115.404 50.6485 118.31 47.8371 118.31 44.3691C118.31 40.901 115.404 38.0896 111.819 38.0896C108.234 38.0896 105.328 40.901 105.328 44.3691C105.328 47.8371 108.234 50.6485 111.819 50.6485Z" stroke="var(--primaryVariationColor)" stroke-width="2" stroke-miterlimit="10" stroke-linecap="round" stroke-linejoin="round"/>
<path id="Vector (White)" opacity="0.6" d="M114.968 40.7764C115.224 41.779 113.786 42.4122 111.677 42.7816C109.536 43.1246 107.619 43.1774 107.363 42.3331C107.107 41.5152 108.545 39.9585 110.654 39.4572C112.795 38.9559 114.712 39.8002 114.968 40.7764Z" fill="white"/>
</g>
<g id="Coins4">
<path id="Shape (primary20Solid)" d="M202.684 118.937H183.1C181.981 118.937 181.057 118.044 181.057 116.962V115.635C181.057 114.553 181.981 113.659 183.1 113.659H202.684C203.803 113.659 204.726 114.553 204.726 115.635V116.962C204.726 118.071 203.803 118.937 202.684 118.937Z" fill="var(--primaryColor20Solid)"/>
<path id="Shape (primaryVariantColor)" d="M202.684 118.937H183.1C181.981 118.937 181.057 118.044 181.057 116.962V115.635C181.057 114.553 181.981 113.659 183.1 113.659H202.684C203.803 113.659 204.726 114.553 204.726 115.635V116.962C204.726 118.071 203.803 118.937 202.684 118.937Z" stroke="var(--primaryVariationColor)" stroke-width="2" stroke-miterlimit="10" stroke-linecap="round" stroke-linejoin="round"/>
</g>
<g id="Coins3">
<path id="Shape (primary20Solid)_2" d="M205.958 113.686H186.373C185.254 113.686 184.331 112.793 184.331 111.711V110.384C184.331 109.302 185.254 108.408 186.373 108.408H205.958C207.077 108.408 208 109.302 208 110.384V111.711C207.972 112.82 207.077 113.686 205.958 113.686Z" fill="var(--primaryColor20Solid)"/>
<path id="Shape (primaryVariantColor)_2" d="M205.958 113.686H186.373C185.254 113.686 184.331 112.793 184.331 111.711V110.384C184.331 109.302 185.254 108.408 186.373 108.408H205.958C207.077 108.408 208 109.302 208 110.384V111.711C207.972 112.82 207.077 113.686 205.958 113.686Z" stroke="var(--primaryVariationColor)" stroke-width="2" stroke-miterlimit="10" stroke-linecap="round" stroke-linejoin="round"/>
</g>
<g id="Coins2">
<path id="Shape (primary20Solid)_3" d="M202.322 108.436H182.737C181.618 108.436 180.695 107.542 180.695 106.46V105.134C180.695 104.051 181.618 103.158 182.737 103.158H202.322C203.441 103.158 204.364 104.051 204.364 105.134V106.46C204.364 107.57 203.441 108.436 202.322 108.436Z" fill="var(--primaryColor20Solid)"/>
<path id="Shape (primaryVariantColor)_3" d="M202.322 108.436H182.737C181.618 108.436 180.695 107.542 180.695 106.46V105.134C180.695 104.051 181.618 103.158 182.737 103.158H202.322C203.441 103.158 204.364 104.051 204.364 105.134V106.46C204.364 107.57 203.441 108.436 202.322 108.436Z" stroke="var(--primaryVariationColor)" stroke-width="2" stroke-miterlimit="10" stroke-linecap="round" stroke-linejoin="round"/>
</g>
<g id="Coins1">
<path id="Shape (primary20Solid)_4" d="M180.163 104.484L166.79 118.315C166.035 119.1 164.748 119.154 163.908 118.396L162.929 117.503C162.118 116.772 162.062 115.527 162.845 114.715L176.218 100.884C176.974 100.099 178.261 100.045 179.1 100.803L180.079 101.696C180.863 102.454 180.919 103.672 180.163 104.484Z" fill="var(--primaryColor20Solid)"/>
<path id="Shape (primaryVariantColor)_4" d="M180.163 104.484L166.79 118.315C166.035 119.1 164.748 119.154 163.908 118.396L162.929 117.503C162.118 116.772 162.062 115.527 162.845 114.715L176.218 100.884C176.974 100.099 178.261 100.045 179.1 100.803L180.079 101.696C180.863 102.454 180.919 103.672 180.163 104.484Z" stroke="var(--primaryVariationColor)" stroke-width="2" stroke-miterlimit="10" stroke-linecap="round" stroke-linejoin="round"/>
</g>
</g>
</g>
</svg>
