<svg width="199" height="124" viewBox="0 0 199 124" fill="none" xmlns="http://www.w3.org/2000/svg">
<g id="Group 263">
<path id="Vector" d="M106.239 119.311H50.4688V122.608H106.239V119.311Z" fill="var(--primaryVariationColor)"/>
<path id="Vector_2" d="M144.976 97.7599H13.3919C10.7776 97.7599 8.63867 95.6402 8.63867 93.0494V5.71042C8.63867 3.11969 10.7776 1 13.3919 1H144.976C147.59 1 149.729 3.11969 149.729 5.71042V93.0102C149.729 95.6402 147.63 97.7599 144.976 97.7599Z" fill="var(--primaryColor)"/>
<path id="Vector_3" d="M141.367 81.1873V9.86328H17.5469V81.1873H141.367Z" fill="var(--primaryColor40Solid)"/>
<path id="Vector_4" d="M145.374 97.7599H13.552C10.9378 97.7599 8.79883 95.6402 8.79883 93.0494V5.71042C8.79883 3.11969 10.9378 1 13.552 1H145.374C147.988 1 150.127 3.11969 150.127 5.71042V93.0102C150.127 95.6402 147.988 97.7599 145.374 97.7599Z" stroke="var(--primaryVariationColor)" stroke-width="2" stroke-miterlimit="10" stroke-linecap="round" stroke-linejoin="round"/>
<path id="Vector_5" d="M141.208 81.1864V9.86279H17.7441V81.1864H141.208Z" stroke="var(--primaryVariationColor)" stroke-width="2" stroke-miterlimit="10" stroke-linecap="round" stroke-linejoin="round"/>
<path id="Vector_6" d="M96.0603 119.31H62.8672L66.9866 97.7598H91.9408L96.0603 119.31Z" fill="var(--primaryColor)"/>
<path id="Vector_7" opacity="0.32" d="M93.0474 103.844L91.9383 97.7598H66.9841L65.875 103.844H93.0474Z" fill="var(--primaryVariationColor)"/>
<path id="Vector_8" d="M96.0603 119.31H62.8672L66.9866 97.7598H91.9408L96.0603 119.31Z" stroke="var(--primaryVariationColor)" stroke-width="2" stroke-miterlimit="10" stroke-linecap="round" stroke-linejoin="round"/>
<path id="Vector_9" d="M106.239 119.311H50.4688V122.608H106.239V119.311Z" stroke="var(--primaryVariationColor)" stroke-width="2" stroke-miterlimit="10" stroke-linecap="round" stroke-linejoin="round"/>
<path id="Vector_10" d="M79.2644 90.302C80.6207 90.302 81.7202 89.2123 81.7202 87.8683C81.7202 86.5243 80.6207 85.4346 79.2644 85.4346C77.9082 85.4346 76.8086 86.5243 76.8086 87.8683C76.8086 89.2123 77.9082 90.302 79.2644 90.302Z" fill="var(--primaryVariationColor)"/>
<path id="Vector_11" d="M108.455 70.1256H40.4055C38.8607 70.1256 37.6328 68.8695 37.6328 67.3779V19.2531C37.6328 17.7222 38.9003 16.5054 40.4055 16.5054H108.455C110 16.5054 111.228 17.7615 111.228 19.2531V67.3386C111.268 68.8695 110 70.1256 108.455 70.1256Z" fill="white"/>
<path id="Vector_12" d="M108.455 70.1256H40.4055C38.8607 70.1256 37.6328 68.8695 37.6328 67.3779V19.2531C37.6328 17.7222 38.9003 16.5054 40.4055 16.5054H108.455C110 16.5054 111.228 17.7615 111.228 19.2531V67.3386C111.268 68.8695 110 70.1256 108.455 70.1256Z" stroke="var(--primaryVariationColor)" stroke-width="2" stroke-miterlimit="10" stroke-linecap="round" stroke-linejoin="round"/>
<path id="Vector_13" d="M111.268 24.7876H37.6328V19.3706C37.6328 17.8004 38.9399 16.4658 40.5639 16.4658H108.535C110.04 16.4658 111.268 17.6827 111.268 19.1743V24.7876Z" fill="var(--primaryColor)"/>
<path id="Vector_14" d="M111.268 24.7876H37.6328V19.3706C37.6328 17.8004 38.9399 16.4658 40.5639 16.4658H108.535C110.04 16.4658 111.268 17.6827 111.268 19.1743V24.7876Z" stroke="var(--primaryVariationColor)" stroke-width="2" stroke-miterlimit="10" stroke-linecap="round" stroke-linejoin="round"/>
<path id="Vector_15" d="M44.7251 21.9613C45.4472 21.9613 46.0322 21.3816 46.0322 20.666C46.0322 19.9508 45.4472 19.3706 44.7251 19.3706C44.0034 19.3706 43.418 19.9508 43.418 20.666C43.418 21.3816 44.0034 21.9613 44.7251 21.9613Z" fill="var(--primaryVariationColor)"/>
<path id="Vector_16" d="M49.0415 21.9613C49.7636 21.9613 50.3486 21.3816 50.3486 20.666C50.3486 19.9508 49.7636 19.3706 49.0415 19.3706C48.3194 19.3706 47.7344 19.9508 47.7344 20.666C47.7344 21.3816 48.3194 21.9613 49.0415 21.9613Z" fill="var(--primaryVariationColor)"/>
<path id="Vector_17" d="M53.3189 21.9613C54.0409 21.9613 54.626 21.3816 54.626 20.666C54.626 19.9508 54.0409 19.3706 53.3189 19.3706C52.5972 19.3706 52.0117 19.9508 52.0117 20.666C52.0117 21.3816 52.5972 21.9613 53.3189 21.9613Z" fill="var(--primaryVariationColor)"/>
<path id="Vector_18" d="M104.337 39.1548H44.0109C43.5752 39.1548 43.2188 38.8015 43.2188 38.3697V30.0087C43.2188 29.5769 43.5752 29.2236 44.0109 29.2236H104.337C104.773 29.2236 105.129 29.5769 105.129 30.0087V38.3697C105.129 38.8015 104.773 39.1548 104.337 39.1548Z" fill="var(--emptyColor)"/>
<path id="Vector_19" opacity="0.2" d="M61.3606 49.636H43.9719C43.5362 49.636 43.1797 49.2828 43.1797 48.851V44.3368C43.1797 43.905 43.5362 43.5518 43.9719 43.5518H61.3606C61.7963 43.5518 62.1528 43.905 62.1528 44.3368V48.851C62.1528 49.2828 61.8359 49.636 61.3606 49.636Z" fill="var(--primaryVariationColor)"/>
<path id="Vector_20" opacity="0.2" d="M45.9902 54.0713H59.9329" stroke="var(--primaryVariationColor)" stroke-width="2" stroke-miterlimit="10" stroke-linecap="round" stroke-linejoin="round"/>
<path id="Vector_21" opacity="0.2" d="M45.9902 58.5068H59.9329" stroke="var(--primaryVariationColor)" stroke-width="2" stroke-miterlimit="10" stroke-linecap="round" stroke-linejoin="round"/>
<path id="Vector_22" opacity="0.2" d="M83.1458 49.636H65.757C65.3213 49.636 64.9648 49.2828 64.9648 48.851V44.3368C64.9648 43.905 65.3213 43.5518 65.757 43.5518H83.1458C83.5815 43.5518 83.938 43.905 83.938 44.3368V48.851C83.938 49.2828 83.5815 49.636 83.1458 49.636Z" fill="var(--primaryVariationColor)"/>
<path id="Vector_23" opacity="0.2" d="M67.7383 54.0713H81.1264" stroke="var(--primaryVariationColor)" stroke-width="2" stroke-miterlimit="10" stroke-linecap="round" stroke-linejoin="round"/>
<path id="Vector_24" opacity="0.2" d="M67.7383 58.5068H81.1264" stroke="var(--primaryVariationColor)" stroke-width="2" stroke-miterlimit="10" stroke-linecap="round" stroke-linejoin="round"/>
<g id="Group">
<path id="Vector_25" opacity="0.2" d="M104.89 59.0557H87.5012C87.0655 59.0557 86.709 58.7024 86.709 58.2706V44.3749C86.709 43.9431 87.0655 43.5898 87.5012 43.5898H104.89C105.326 43.5898 105.682 43.9431 105.682 44.3749V58.2706C105.682 58.7024 105.326 59.0557 104.89 59.0557Z" fill="var(--primaryVariationColor)"/>
</g>
<g id="Group_2" opacity="0.09">
<path id="Vector_26" opacity="0.09" d="M104.336 63.4912H87.779C87.1452 63.4912 86.6699 62.9809 86.6699 62.3921C86.6699 61.8033 87.1849 61.293 87.779 61.293H104.336C104.97 61.293 105.445 61.8033 105.445 62.3921C105.445 62.9809 104.93 63.4912 104.336 63.4912Z" fill="var(--primaryVariationColor)"/>
</g>
<path id="Vector_27" d="M29.754 122.596H5.29116C3.29196 122.596 1.65625 120.982 1.65625 119.009V70.6257C1.65625 68.653 3.29196 67.0391 5.29116 67.0391H29.754C31.7532 67.0391 33.3889 68.653 33.3889 70.6257V119.009C33.3889 121.018 31.7532 122.596 29.754 122.596Z" fill="white"/>
<path id="Vector_28" d="M33.3889 75.425H1.65625V68.8064C1.65625 67.8326 3.23036 67.0391 5.16223 67.0391H29.6683C31.7075 67.0391 33.3532 67.8867 33.3532 68.8966V75.425H33.3889Z" fill="var(--emptyColor)"/>
<path id="Vector_29" d="M29.754 122.596H5.29116C3.29196 122.596 1.65625 120.982 1.65625 119.009V70.6257C1.65625 68.653 3.29196 67.0391 5.29116 67.0391H29.754C31.7532 67.0391 33.3889 68.653 33.3889 70.6257V119.009C33.3889 121.018 31.7532 122.596 29.754 122.596Z" stroke="var(--primaryVariationColor)" stroke-width="2" stroke-miterlimit="10" stroke-linecap="round" stroke-linejoin="round"/>
<path id="Vector_30" d="M29.7945 122.596H5.43222C3.3627 122.596 1.65625 120.765 1.65625 118.544V111.065H33.3889V118.739C33.3889 120.882 31.7551 122.596 29.7945 122.596Z" fill="var(--primaryColor)"/>
<path id="Vector_31" d="M29.8671 122.596H5.43222C3.3627 122.596 1.65625 120.765 1.65625 118.544V111.065H33.3889V118.817C33.3889 120.921 31.7914 122.596 29.8671 122.596Z" stroke="var(--primaryVariationColor)" stroke-width="2" stroke-miterlimit="10" stroke-linecap="round" stroke-linejoin="round"/>
<path id="Vector_32" d="M18.0526 119.451C19.5128 119.451 20.697 118.278 20.697 116.831C20.697 115.383 19.5128 114.21 18.0526 114.21C16.5924 114.21 15.4082 115.383 15.4082 116.831C15.4082 118.278 16.5924 119.451 18.0526 119.451Z" fill="var(--primaryVariationColor)"/>
<path id="Vector_33" opacity="0.3" d="M9.06055 81.7148H27.0424" stroke="var(--primaryVariationColor)" stroke-width="2" stroke-miterlimit="10" stroke-linecap="round" stroke-linejoin="round"/>
<path id="Vector_34" opacity="0.3" d="M11.1758 86.9556H24.9266" stroke="var(--primaryVariationColor)" stroke-width="2" stroke-miterlimit="10" stroke-linecap="round" stroke-linejoin="round"/>
<path id="Vector_35" opacity="0.3" d="M12.2324 92.1968H22.81" stroke="var(--primaryVariationColor)" stroke-width="2" stroke-miterlimit="10" stroke-linecap="round" stroke-linejoin="round"/>
<path id="Vector_36" opacity="0.3" d="M9.06055 97.438H27.0424" stroke="var(--primaryVariationColor)" stroke-width="2" stroke-miterlimit="10" stroke-linecap="round" stroke-linejoin="round"/>
<path id="Vector_37" d="M23.8689 105.825C23.8689 106.985 22.8864 107.92 21.6682 107.92H13.3764C12.1582 107.92 11.1758 106.985 11.1758 105.825C11.1758 104.664 12.1582 103.729 13.3764 103.729H21.6682C22.8864 103.691 23.8689 104.627 23.8689 105.825Z" fill="var(--primaryColor)"/>
<path id="Vector_38" d="M186.647 115.816H90.6719V58.6633C90.6719 56.9754 92.0582 55.6016 93.7614 55.6016H183.597C185.26 55.6016 186.607 56.9362 186.607 58.5848V115.816H186.647Z" fill="var(--primaryColor)"/>
<path id="Vector_39" d="M186.884 115.934H90.9492V58.6237C90.9492 56.8965 92.3752 55.4834 94.118 55.4834H183.716C185.458 55.4834 186.884 56.8965 186.884 58.6237V115.934Z" stroke="var(--primaryVariationColor)" stroke-width="2" stroke-miterlimit="10" stroke-linecap="round" stroke-linejoin="round"/>
<path id="Vector_40" opacity="0.71" d="M181.627 110.881V60.5576H96.2676V110.881H181.627Z" fill="white"/>
<path id="Vector_41" d="M181.552 110.643V60.7515H96.2715V110.643H181.552Z" stroke="var(--primaryVariationColor)" stroke-width="2" stroke-miterlimit="10" stroke-linecap="round" stroke-linejoin="round"/>
<path id="Vector_42" d="M197.342 115.935H80.4531V119.624C80.4531 121.352 81.8791 122.765 83.6219 122.765H194.173C195.916 122.765 197.342 121.352 197.342 119.624V115.935Z" fill="var(--primaryVariationColor)"/>
<path id="Vector_43" opacity="0.8" d="M84.928 123H192.905C195.083 123 196.866 121.352 197.262 119.114H80.5312C80.9273 121.352 82.7494 123 84.928 123Z" fill="var(--primaryColor)"/>
<path id="Vector_44" d="M197.342 115.935H80.4531V119.624C80.4531 121.352 81.8791 122.765 83.6219 122.765H194.173C195.916 122.765 197.342 121.352 197.342 119.624V115.935Z" stroke="var(--primaryVariationColor)" stroke-width="2" stroke-miterlimit="10" stroke-linecap="round" stroke-linejoin="round"/>
<path id="Vector_45" d="M115.783 72.7168H106.871V81.5488H115.783V72.7168Z" fill="var(--primaryColor)"/>
<path id="Vector_46" d="M115.943 72.7949H107.031V81.627H115.943V72.7949Z" stroke="var(--primaryVariationColor)" stroke-width="2" stroke-miterlimit="10" stroke-linecap="round" stroke-linejoin="round"/>
<path id="Vector_47" d="M115.943 72.7949H107.031V81.627H115.943V72.7949Z" stroke="var(--primaryVariationColor)" stroke-width="2" stroke-miterlimit="10" stroke-linecap="round" stroke-linejoin="round"/>
<path id="Vector_48" d="M115.783 81.5488H106.871V90.3809H115.783V81.5488Z" fill="var(--primaryColor40Solid)"/>
<path id="Vector_49" d="M115.943 81.666H107.031V90.498H115.943V81.666Z" stroke="var(--primaryVariationColor)" stroke-width="2" stroke-miterlimit="10" stroke-linecap="round" stroke-linejoin="round"/>
<path id="Vector_50" d="M115.783 90.3804H106.871V99.2124H115.783V90.3804Z" fill="var(--emptyColor)"/>
<path id="Vector_51" d="M115.943 90.498H107.031V99.3301H115.943V90.498Z" stroke="var(--primaryVariationColor)" stroke-width="2" stroke-miterlimit="10" stroke-linecap="round" stroke-linejoin="round"/>
<path id="Vector_52" d="M167.626 103.367H125.045C124.174 103.367 123.461 102.661 123.461 101.797V69.5701C123.461 68.7066 124.174 68 125.045 68H167.626C168.497 68 169.21 68.7066 169.21 69.5701V101.797C169.21 102.7 168.497 103.367 167.626 103.367Z" fill="white"/>
<path id="Vector_53" d="M167.751 103.648H125.17C124.299 103.648 123.586 102.941 123.586 102.078V69.8504C123.586 68.9868 124.299 68.2803 125.17 68.2803H167.751C168.622 68.2803 169.335 68.9868 169.335 69.8504V102.078C169.335 102.98 168.622 103.648 167.751 103.648Z" stroke="var(--primaryVariationColor)" stroke-width="2" stroke-miterlimit="10" stroke-linecap="round" stroke-linejoin="round"/>
<path id="Vector_54" d="M138.519 75.8564H135.707V78.6435H138.519V75.8564Z" fill="white"/>
<path id="Vector_55" d="M138.519 93.521H135.707V96.308H138.519V93.521Z" fill="white"/>
<path id="Vector_56" d="M157.375 75.8564H154.562V78.6435H157.375V75.8564Z" fill="white"/>
<path id="Vector_57" d="M157.375 93.521H154.562V96.308H157.375V93.521Z" fill="white"/>
<g id="Group 191">
<g id="Group_3">
<path id="Vector_58" d="M146.424 97.9939V74.0075C141.023 73.7858 134.443 78.4913 134.443 86.002C134.443 94.511 142.123 98.1703 146.424 97.9939ZM145.792 96.1565C144.264 94.9137 142.958 93.1225 142.19 90.9637C143.302 91.1422 144.507 91.2644 145.792 91.3258V96.1565ZM145.792 90.057C144.217 89.9797 142.894 89.8172 141.791 89.6109C141.566 88.6698 141.433 87.6773 141.395 86.6349H145.792V90.057ZM145.792 85.3665H141.395C141.433 84.3241 141.565 83.3325 141.791 82.3913C142.894 82.1851 144.217 82.0217 145.792 81.9453V85.3665ZM145.792 75.845V80.6757C144.507 80.737 143.302 80.8592 142.19 81.0377C142.956 78.8853 144.259 77.0911 145.792 75.845ZM144.297 75.4745C142.645 77.052 141.456 79.0587 140.78 81.3065C139.173 81.6648 137.373 82.2561 136.067 83.2485C137.104 79.3309 140.301 76.2847 144.297 75.4745ZM140.437 82.6908C140.273 83.5114 140.164 84.4027 140.13 85.3665H135.859C136.522 83.9432 138.909 83.0856 140.437 82.6908ZM140.13 86.6349C140.164 87.5988 140.273 88.4913 140.437 89.3115C138.924 88.9209 136.522 88.0637 135.858 86.6349H140.13ZM140.782 90.6958C141.457 92.9465 142.649 94.9524 144.298 96.5269C140.303 95.7172 137.105 92.6727 136.068 88.7554C136.941 89.4186 138.375 90.1599 140.782 90.6958H140.782Z" fill="var(--primaryColor)"/>
<path id="Vector_59" d="M158.405 86.0018C158.405 77.1115 150.248 73.8507 146.424 74.0073V97.9937C149.034 98.1004 158.405 95.8253 158.405 86.0018ZM148.551 96.5267C150.199 94.9517 151.391 92.9463 152.067 90.6956C154.473 90.1601 155.907 89.4184 156.78 88.7552C155.743 92.6725 152.546 95.717 148.551 96.5267ZM152.411 89.3113C152.576 88.4906 152.684 87.5986 152.718 86.6347H156.99C156.327 88.0635 153.925 88.9207 152.412 89.3113H152.411ZM152.718 85.3663C152.684 84.4025 152.576 83.5108 152.411 82.6906C153.939 83.0854 156.327 83.9434 156.989 85.3663H152.718ZM156.781 83.2483C155.476 82.2559 153.675 81.6646 152.068 81.3063C151.392 79.0585 150.203 77.0518 148.551 75.4743C152.547 76.2845 155.744 79.3303 156.781 83.2483ZM147.056 75.8448C148.589 77.0909 149.892 78.8851 150.658 81.0375C149.546 80.859 148.341 80.7364 147.056 80.6755V75.8448ZM147.056 81.9451C148.632 82.0215 149.954 82.1849 151.057 82.3911C151.283 83.3323 151.415 84.3239 151.454 85.3663H147.057V81.9451H147.056ZM147.056 86.6343H151.453C151.415 87.6767 151.282 88.6691 151.057 89.6103C149.953 89.8165 148.631 89.9791 147.056 90.0564V86.6343H147.056ZM147.056 91.3256C148.341 91.2642 149.546 91.142 150.658 90.9635C149.89 93.1223 148.584 94.9135 147.056 96.1563V91.3256Z" fill="var(--primaryColor)"/>
</g>
</g>
</g>
</svg>
