<svg id="svg" version="1.1"
  xmlns="http://www.w3.org/2000/svg"
  xmlns:xlink="http://www.w3.org/1999/xlink" width="400" height="391.71270718232046" viewBox="0, 0, 400,391.71270718232046">
  <g id="svgg">
    <path id="path0" d="M0.374 1.209 C 0.133 1.658,0.039 2.128,0.164 2.254 C 0.289 2.379,0.392 2.288,0.392 2.052 C 0.392 1.816,0.669 1.346,1.007 1.007 C 1.346 0.669,1.440 0.392,1.217 0.392 C 0.994 0.392,0.614 0.759,0.374 1.209 M174.339 2.134 C 174.339 2.532,176.328 4.409,176.533 4.205 C 176.615 4.123,176.154 3.552,175.510 2.934 C 174.866 2.317,174.339 1.957,174.339 2.134 M180.803 8.227 C 180.936 8.443,181.310 8.619,181.633 8.619 C 181.956 8.619,182.112 8.443,181.978 8.227 C 181.845 8.012,181.472 7.835,181.149 7.835 C 180.825 7.835,180.670 8.012,180.803 8.227 M170.029 53.463 C 168.928 54.073,142.790 80.640,141.726 82.230 C 139.929 84.919,141.943 88.446,145.039 88.031 C 146.472 87.839,147.198 87.268,151.588 82.888 L 156.526 77.961 160.437 81.922 C 165.259 86.806,167.704 88.462,170.833 88.966 C 180.154 90.467,188.656 83.154,188.627 73.662 C 188.611 68.321,187.960 67.232,180.351 59.803 C 172.841 52.473,172.356 52.175,170.029 53.463 M176.316 66.503 C 182.020 72.034,182.517 74.898,178.478 78.938 C 174.510 82.905,171.615 82.404,165.918 76.766 L 161.606 72.497 166.694 67.395 C 169.492 64.588,171.824 62.292,171.877 62.292 C 171.930 62.292,173.928 64.187,176.316 66.503 M190.206 88.617 C 189.775 88.862,188.826 89.694,188.097 90.466 C 187.368 91.239,182.937 95.773,178.250 100.543 C 168.034 110.940,167.276 112.425,170.898 114.962 C 173.321 116.659,173.984 116.246,182.185 107.937 C 189.931 100.088,191.865 98.925,195.530 99.912 C 197.194 100.360,199.412 102.037,199.412 102.847 C 199.412 105.566,203.982 107.026,206.042 104.965 C 209.525 101.482,204.639 95.780,197.747 95.285 C 196.293 95.181,195.103 95.053,195.103 95.000 C 195.103 94.948,195.370 94.266,195.696 93.486 C 197.086 90.159,193.341 86.839,190.206 88.617 M206.856 111.582 C 194.045 114.931,188.433 129.236,195.794 139.780 C 201.447 147.877,213.124 150.993,213.124 144.405 C 213.124 142.669,211.911 141.635,208.720 140.649 C 201.821 138.518,198.287 131.891,200.815 125.822 C 201.517 124.137,201.401 124.072,206.351 128.908 C 217.877 140.165,218.435 140.646,219.941 140.646 C 222.611 140.646,225.735 136.751,227.019 131.818 C 230.315 119.166,219.472 108.285,206.856 111.582 M214.465 118.473 C 218.895 120.324,221.530 125.689,219.950 129.639 C 218.997 132.020,218.810 131.919,212.349 125.529 L 206.285 119.533 208.040 118.737 C 210.096 117.804,212.616 117.701,214.465 118.473 M235.172 133.114 C 234.659 133.513,233.747 135.317,232.950 137.512 C 232.207 139.559,229.786 146.170,227.571 152.204 C 223.053 164.505,222.775 165.942,224.606 167.517 C 226.222 168.907,228.058 168.740,233.190 166.738 C 239.545 164.258,244.414 162.365,249.559 160.374 C 257.457 157.319,258.233 156.949,258.997 155.876 C 262.047 151.593,257.356 149.289,251.008 151.953 C 249.026 152.784,245.113 154.394,242.311 155.530 C 239.510 156.666,236.442 157.927,235.493 158.332 C 233.103 159.353,233.018 159.828,237.223 148.676 C 241.931 136.189,241.825 136.555,241.163 134.971 C 240.153 132.553,237.108 131.609,235.172 133.114 M271.022 151.910 C 268.880 154.126,268.898 155.284,271.107 157.493 C 273.594 159.980,276.174 159.495,277.945 156.206 C 279.940 152.500,274.008 148.819,271.022 151.910 M263.839 159.827 C 262.643 160.311,243.175 180.467,242.600 181.816 C 241.543 184.298,243.426 186.876,246.298 186.876 L 248.022 186.876 257.795 176.947 C 263.170 171.486,267.941 166.543,268.397 165.963 C 270.896 162.786,267.575 158.314,263.839 159.827 M272.350 175.119 C 264.924 176.876,257.395 186.023,257.395 193.288 C 257.395 201.632,265.766 210.876,273.849 211.457 C 279.531 211.867,280.580 205.718,275.010 204.651 C 268.133 203.334,263.448 195.739,266.018 190.074 C 267.010 187.888,266.369 187.472,275.274 196.082 C 285.228 205.707,285.456 205.827,288.296 202.987 C 299.943 191.340,288.478 171.304,272.350 175.119 M280.447 182.542 C 284.588 184.677,286.904 190.351,285.095 193.928 C 284.324 195.452,284.023 195.261,277.771 189.295 C 270.810 182.652,270.979 183.205,275.416 181.627 C 276.372 181.287,278.907 181.748,280.447 182.542 M301.469 196.649 C 300.115 197.203,299.480 198.263,296.645 204.701 C 295.126 208.149,292.373 214.385,290.527 218.560 C 286.400 227.889,286.351 229.514,290.157 230.770 C 291.704 231.281,291.650 231.304,302.746 225.496 C 307.646 222.932,307.985 222.919,306.828 225.347 C 299.618 240.467,299.646 240.375,301.593 242.555 C 303.381 244.555,304.646 244.311,312.766 240.393 C 316.610 238.539,319.822 237.023,319.905 237.023 C 321.503 237.023,333.781 230.194,334.354 228.986 C 336.420 224.632,332.484 222.247,327.282 224.701 C 325.582 225.502,322.782 226.816,321.058 227.620 C 319.334 228.424,316.565 229.723,314.905 230.506 C 310.488 232.590,310.491 233.248,314.865 223.702 C 317.647 217.633,317.780 216.846,316.322 215.113 C 314.685 213.168,313.254 213.408,306.170 216.816 C 298.239 220.630,298.338 220.601,299.056 218.935 C 300.748 215.007,302.486 211.069,303.522 208.815 C 307.701 199.724,307.740 199.533,305.818 197.610 C 304.458 196.250,303.150 195.961,301.469 196.649 M391.381 212.255 C 391.381 212.912,394.024 215.867,394.612 215.867 C 394.911 215.867,396.866 217.765,396.866 218.055 C 396.866 218.300,398.537 220.694,398.899 220.968 C 399.047 221.080,399.336 222.050,399.540 223.123 C 399.867 224.833,399.918 224.908,399.956 223.730 C 400.004 222.261,399.245 219.785,398.746 219.785 C 398.574 219.785,398.433 219.532,398.433 219.224 C 398.433 218.916,396.846 217.062,394.907 215.105 C 392.550 212.725,391.381 211.780,391.381 212.255 M399.662 389.397 C 399.632 389.706,399.225 390.367,398.756 390.866 C 398.085 391.581,398.033 391.773,398.513 391.773 C 399.407 391.773,400.085 390.770,399.888 389.738 C 399.793 389.241,399.691 389.088,399.662 389.397 " stroke="none" fill="white" fill-rule="evenodd"></path>
    <path id="path1" d="M2.122 0.421 C 0.457 0.905,0.000 2.167,0.000 6.287 L 0.000 9.794 5.910 9.794 L 11.821 9.794 13.891 11.949 C 15.030 13.134,16.092 14.104,16.252 14.104 C 16.599 14.104,19.912 17.316,27.566 25.071 C 29.906 27.443,31.948 29.383,32.103 29.383 C 32.258 29.383,32.621 29.824,32.909 30.362 C 33.197 30.901,33.652 31.342,33.919 31.342 C 34.186 31.342,38.193 35.132,42.823 39.765 C 47.453 44.398,51.359 48.188,51.504 48.188 C 51.648 48.188,55.614 52.023,60.315 56.709 C 65.017 61.396,69.358 65.583,69.963 66.014 C 70.568 66.445,71.337 67.131,71.672 67.539 C 72.008 67.947,72.603 68.564,72.995 68.910 C 73.844 69.659,81.012 76.814,81.939 77.837 C 83.247 79.280,86.891 82.664,87.138 82.664 C 87.279 82.664,91.259 86.543,95.984 91.283 C 100.709 96.024,104.696 99.902,104.845 99.902 C 105.098 99.902,107.765 102.363,109.231 103.948 C 112.062 107.010,122.050 116.748,122.359 116.748 C 122.476 116.748,126.442 120.627,131.174 125.367 C 135.905 130.108,139.902 133.986,140.056 133.986 C 140.211 133.986,144.202 137.865,148.926 142.605 C 153.651 147.346,157.618 151.224,157.743 151.224 C 158.083 151.224,165.841 158.727,168.135 161.274 C 169.559 162.856,175.031 168.071,175.266 168.071 C 175.404 168.071,179.390 171.949,184.124 176.690 C 188.859 181.430,192.823 185.309,192.934 185.309 C 193.228 185.309,194.724 186.563,195.453 187.421 C 195.799 187.829,196.416 188.446,196.824 188.793 C 197.232 189.139,197.849 189.749,198.195 190.149 C 198.935 191.003,206.090 198.146,207.125 199.063 C 207.516 199.410,208.280 200.220,208.823 200.863 C 209.367 201.505,210.198 202.238,210.671 202.491 C 211.144 202.744,215.310 206.739,219.928 211.368 C 224.547 215.997,228.448 219.785,228.597 219.785 C 228.746 219.785,232.652 223.575,237.277 228.208 C 241.902 232.840,245.829 236.631,246.002 236.631 C 246.176 236.631,250.197 240.509,254.938 245.250 C 259.680 249.990,263.676 253.869,263.820 253.869 C 263.963 253.869,267.948 257.747,272.674 262.488 C 277.400 267.228,281.380 271.107,281.519 271.107 C 281.792 271.107,283.334 272.445,284.367 273.580 C 285.431 274.748,292.515 281.830,293.299 282.510 C 293.699 282.856,294.309 283.473,294.655 283.881 C 295.001 284.289,295.618 284.905,296.026 285.249 C 296.434 285.593,297.209 286.423,297.747 287.093 C 298.286 287.763,298.935 288.319,299.190 288.328 C 299.444 288.337,303.441 292.135,308.071 296.768 C 312.701 301.401,316.611 305.191,316.760 305.191 C 316.909 305.191,320.894 309.070,325.616 313.810 C 330.338 318.550,334.347 322.429,334.525 322.429 C 334.703 322.429,338.886 326.405,343.820 331.265 C 348.754 336.125,356.540 343.794,361.123 348.307 C 365.705 352.821,369.686 356.513,369.969 356.513 C 370.253 356.513,370.710 356.935,370.986 357.450 C 371.261 357.965,371.908 358.611,372.423 358.887 C 372.938 359.163,373.359 359.511,373.359 359.662 C 373.359 359.920,377.903 364.588,379.487 365.958 C 379.888 366.304,380.499 366.921,380.845 367.329 C 381.191 367.737,381.808 368.370,382.216 368.736 C 382.624 369.102,383.921 370.380,385.098 371.576 C 386.275 372.772,387.382 373.751,387.560 373.751 C 387.737 373.751,388.404 374.286,389.044 374.940 L 390.206 376.129 390.206 383.951 L 390.206 391.773 394.055 391.773 C 397.687 391.773,397.958 391.716,398.854 390.762 L 399.804 389.751 399.915 308.000 C 400.022 228.708,399.941 221.759,398.895 220.966 C 398.535 220.693,396.866 218.298,396.866 218.055 C 396.866 217.745,394.901 215.867,394.577 215.867 C 393.885 215.867,391.381 212.827,391.381 211.987 C 391.381 211.165,387.246 206.464,386.522 206.464 C 386.380 206.464,382.302 202.498,377.460 197.649 C 372.618 192.801,368.422 188.834,368.136 188.834 C 367.850 188.834,367.390 188.413,367.114 187.898 C 366.839 187.383,366.211 186.747,365.720 186.484 C 365.229 186.221,364.601 185.584,364.326 185.070 C 364.050 184.555,363.704 184.133,363.556 184.133 C 363.409 184.133,362.248 183.063,360.978 181.756 C 356.832 177.489,356.005 176.690,355.736 176.690 C 355.590 176.690,355.245 176.268,354.969 175.753 C 354.694 175.238,354.066 174.602,353.575 174.339 C 353.084 174.076,352.467 173.459,352.204 172.968 C 351.941 172.476,351.274 171.835,350.722 171.542 C 350.170 171.249,345.701 166.998,340.790 162.096 C 335.880 157.194,331.744 153.183,331.600 153.183 C 331.456 153.183,327.380 149.216,322.543 144.368 C 317.706 139.520,313.606 135.553,313.431 135.553 C 313.256 135.553,309.148 131.587,304.302 126.738 C 299.456 121.890,295.375 117.924,295.235 117.924 C 295.094 117.924,291.014 113.957,286.168 109.109 C 281.323 104.261,277.206 100.294,277.019 100.294 C 276.833 100.294,275.735 99.309,274.579 98.105 C 273.423 96.900,271.888 95.358,271.167 94.677 C 270.446 93.995,269.564 93.104,269.208 92.696 C 268.852 92.288,268.227 91.671,267.819 91.325 C 267.411 90.979,266.794 90.362,266.447 89.954 C 266.101 89.546,265.484 88.929,265.076 88.583 C 264.668 88.236,264.051 87.619,263.705 87.211 C 263.359 86.804,262.744 86.187,262.339 85.840 C 261.935 85.494,261.069 84.638,260.416 83.937 C 259.762 83.237,259.083 82.664,258.907 82.664 C 258.730 82.664,254.625 78.697,249.785 73.849 C 244.945 69.001,240.871 65.034,240.731 65.034 C 240.591 65.034,236.502 61.068,231.643 56.219 C 226.784 51.371,222.676 47.405,222.513 47.405 C 222.350 47.405,218.341 43.526,213.604 38.786 C 208.868 34.045,204.879 30.167,204.741 30.167 C 204.603 30.167,200.550 26.244,195.734 21.450 C 190.919 16.655,186.484 12.380,185.880 11.949 C 185.275 11.518,184.220 10.593,183.535 9.892 C 182.851 9.192,182.043 8.619,181.741 8.619 C 181.438 8.619,180.254 7.649,179.110 6.464 C 177.966 5.279,176.854 4.310,176.638 4.310 C 176.422 4.310,175.663 3.692,174.952 2.938 C 174.241 2.184,173.371 1.567,173.019 1.567 C 172.668 1.567,172.380 1.409,172.380 1.216 C 172.380 0.037,6.117 -0.739,2.122 0.421 M173.423 53.393 C 175.479 54.547,186.459 65.794,187.523 67.835 C 191.813 76.066,185.369 87.376,175.481 88.968 C 169.986 89.853,166.790 88.356,160.437 81.922 L 156.526 77.961 151.588 82.888 C 145.769 88.694,144.457 89.278,142.232 87.053 C 139.410 84.230,139.313 84.370,155.730 67.607 C 170.873 52.144,171.007 52.036,173.423 53.393 M166.694 67.395 L 161.606 72.497 165.918 76.766 C 170.693 81.492,171.383 81.836,174.626 81.111 C 178.624 80.216,181.401 76.293,180.869 72.290 C 180.695 70.980,172.881 62.292,171.877 62.292 C 171.824 62.292,169.492 64.588,166.694 67.395 M194.274 88.788 C 195.819 89.870,196.402 91.795,195.696 93.486 C 195.370 94.266,195.103 94.948,195.103 95.000 C 195.103 95.053,196.293 95.181,197.747 95.285 C 204.639 95.780,209.525 101.482,206.042 104.965 C 203.982 107.026,199.412 105.566,199.412 102.847 C 199.412 102.037,197.194 100.360,195.530 99.912 C 191.865 98.925,189.931 100.088,182.185 107.937 C 173.984 116.246,173.321 116.659,170.898 114.962 C 167.276 112.425,168.034 110.940,178.250 100.543 C 182.937 95.773,187.368 91.239,188.097 90.466 C 190.378 88.049,192.424 87.493,194.274 88.788 M214.770 111.312 C 227.253 113.961,232.139 130.898,222.844 139.296 C 219.755 142.087,220.010 142.248,206.351 128.908 C 201.401 124.072,201.517 124.137,200.815 125.822 C 198.287 131.891,201.821 138.518,208.720 140.649 C 211.911 141.635,213.124 142.669,213.124 144.405 C 213.124 152.793,197.821 145.964,193.315 135.564 C 188.134 123.606,201.501 108.497,214.770 111.312 M208.040 118.737 L 206.285 119.533 212.349 125.529 C 218.810 131.919,218.997 132.020,219.950 129.639 C 222.629 122.942,214.723 115.705,208.040 118.737 M239.719 133.058 C 242.357 134.906,242.314 135.171,237.223 148.676 C 233.018 159.828,233.103 159.353,235.493 158.332 C 236.442 157.927,239.510 156.666,242.311 155.530 C 245.113 154.394,249.026 152.784,251.008 151.953 C 257.356 149.289,262.047 151.593,258.997 155.876 C 258.233 156.949,257.457 157.319,249.559 160.374 C 244.414 162.365,239.545 164.258,233.190 166.738 C 228.058 168.740,226.222 168.907,224.606 167.517 C 222.775 165.942,223.053 164.505,227.571 152.204 C 229.786 146.170,232.207 139.559,232.950 137.512 C 234.736 132.593,236.963 131.128,239.719 133.058 M275.653 151.185 C 278.826 153.120,279.080 156.095,276.262 158.311 C 274.244 159.899,269.668 157.822,269.493 155.240 C 269.268 151.919,272.917 149.517,275.653 151.185 M267.197 160.043 C 269.338 161.150,269.920 164.026,268.397 165.963 C 267.941 166.543,263.170 171.486,257.795 176.947 L 248.022 186.876 246.298 186.876 C 243.426 186.876,241.543 184.298,242.600 181.816 C 243.175 180.467,262.643 160.311,263.839 159.827 C 265.055 159.334,265.936 159.391,267.197 160.043 M282.195 175.688 C 293.229 179.582,296.603 194.680,288.296 202.987 C 285.456 205.827,285.228 205.707,275.274 196.082 C 266.369 187.472,267.010 187.888,266.018 190.074 C 263.448 195.739,268.133 203.334,275.010 204.651 C 278.284 205.278,279.766 208.970,277.473 210.787 C 273.507 213.930,264.005 208.755,259.461 200.979 C 251.848 187.951,267.525 170.510,282.195 175.688 M275.416 181.627 C 270.979 183.205,270.810 182.652,277.771 189.295 C 284.023 195.261,284.324 195.452,285.095 193.928 C 287.797 188.588,280.809 179.708,275.416 181.627 M305.818 197.610 C 307.740 199.533,307.701 199.724,303.522 208.815 C 302.486 211.069,300.748 215.007,299.056 218.935 C 298.338 220.601,298.239 220.630,306.170 216.816 C 313.254 213.408,314.685 213.168,316.322 215.113 C 317.780 216.846,317.647 217.633,314.865 223.702 C 310.491 233.248,310.488 232.590,314.905 230.506 C 316.565 229.723,319.334 228.424,321.058 227.620 C 322.782 226.816,325.582 225.502,327.282 224.701 C 332.484 222.247,336.420 224.632,334.354 228.986 C 333.781 230.194,321.503 237.023,319.905 237.023 C 319.822 237.023,316.610 238.539,312.766 240.393 C 304.646 244.311,303.381 244.555,301.593 242.555 C 299.646 240.375,299.618 240.467,306.828 225.347 C 307.985 222.919,307.646 222.932,302.746 225.496 C 291.650 231.304,291.704 231.281,290.157 230.770 C 286.351 229.514,286.400 227.889,290.527 218.560 C 292.373 214.385,295.126 208.149,296.645 204.701 C 300.571 195.786,302.501 194.294,305.818 197.610 " stroke="none" fill="#58151c" fill-rule="evenodd"></path>
  </g>
</svg>