<svg width="296" height="149" viewBox="0 0 296 149" fill="none" xmlns="http://www.w3.org/2000/svg">
<g id="Socket1">
<path id="Wire (primaryColor)" fill-rule="evenodd" clip-rule="evenodd" d="M84.6319 8.62148C92.1664 9.40615 99.8136 12.2762 108.117 18.3018C116.802 24.605 120.666 33.0636 122.058 42.3674C123.428 51.523 122.429 61.6767 121.344 71.5797C121.275 72.2041 121.206 72.8278 121.138 73.4504C120.099 82.8615 119.085 92.0534 119.717 100.632C120.385 109.692 122.878 117.768 128.952 124.378C134.615 130.541 140.332 132.314 146.538 131.824C153.048 131.31 160.233 128.3 168.64 124.315C170.082 123.632 171.553 122.922 173.055 122.198C188.709 114.652 207.654 105.519 230.314 107.88L229.692 113.848C208.811 111.672 191.378 120.052 175.562 127.655C174.098 128.358 172.648 129.056 171.21 129.737C162.898 133.676 154.771 137.192 147.01 137.805C138.945 138.442 131.431 135.944 124.534 128.438C117.254 120.515 114.464 110.976 113.734 101.073C113.059 91.9188 114.133 82.1993 115.158 72.9325C115.232 72.2611 115.306 71.5921 115.379 70.9259C116.478 60.9039 117.361 51.5188 116.124 43.2554C114.91 35.1403 111.678 28.2998 104.592 23.1578C97.0222 17.6639 90.3578 15.2502 84.0104 14.5892C77.6101 13.9227 71.3016 15.0112 64.3606 16.8904C61.3618 17.7023 58.2431 18.6676 54.9705 19.6805C43.2615 23.3046 29.5818 27.5388 12.3704 27.5388L12.3704 21.5388C28.5824 21.5388 41.1555 17.6556 52.7667 14.0695C56.1688 13.0187 59.4883 11.9935 62.7926 11.0989C70.0063 9.14591 77.1501 7.8423 84.6319 8.62148Z" fill="#635EF7"/>
<rect id="BodyConnect (primaryVariationColor)" x="224.19" y="115.19" width="8.22546" height="13.3664" rx="4.11273" transform="rotate(-90 224.19 115.19)" fill="#4541B4"/>
<path id="Body (primaryColor)" d="M264.289 141.923C247.253 141.923 233.443 128.113 233.443 111.078C233.443 94.0423 247.253 80.2323 264.289 80.2323H284.724C288.77 80.2323 292.049 83.5121 292.049 87.5581V134.597C292.049 138.643 288.77 141.923 284.724 141.923H264.289Z" fill="#635EF7"/>
<path id="BodyOutline (primaryVariationColor)" fill-rule="evenodd" clip-rule="evenodd" d="M284.724 82.2323H264.289C248.358 82.2323 235.443 95.1468 235.443 111.078C235.443 127.009 248.358 139.923 264.289 139.923H284.724C287.665 139.923 290.049 137.539 290.049 134.597V87.5581C290.049 84.6167 287.665 82.2323 284.724 82.2323ZM233.443 111.078C233.443 128.113 247.253 141.923 264.289 141.923H284.724C288.77 141.923 292.049 138.643 292.049 134.597V87.5581C292.049 83.5121 288.77 80.2323 284.724 80.2323H264.289C247.253 80.2323 233.443 94.0423 233.443 111.078Z" fill="#4541B4"/>
<path id="Ellipse 2(primaryVariationColor)" d="M285.88 75.0908C291.559 75.0908 294.106 91.1447 294.106 111.591C294.106 132.038 292.073 148.092 286.395 148.092C280.716 148.092 274.57 132.038 274.57 111.591C274.57 91.1447 280.202 75.0908 285.88 75.0908Z" fill="#4541B4"/>
<ellipse id="Ellipse 1(primaryColor)" cx="286.395" cy="111.591" rx="36.5005" ry="8.73955" transform="rotate(-90 286.395 111.591)" fill="#635EF7"/>
<g id="Holes (darkTextColor)">
<ellipse id="Ellipse 2" cx="287.225" cy="100.801" rx="2" ry="5" fill="#2F2D6C"/>
<ellipse id="Ellipse 1" cx="287.225" cy="123.801" rx="2" ry="5" fill="#2F2D6C"/>
</g>
</g>
</svg>
